<?xml version="1.0" encoding="utf-8"?>
<!-- Generator: Adobe Illustrator 22.0.1, SVG Export Plug-In . SVG Version: 6.00 Build 0)  -->
<svg version="1.1" id="圖層_1" xmlns="http://www.w3.org/2000/svg" xmlns:xlink="http://www.w3.org/1999/xlink" x="0px" y="0px"
	 viewBox="0 0 350.6 96" style="enable-background:new 0 0 350.6 96;" xml:space="preserve">
<style type="text/css">
	.st0{fill:#E54242;}
	.st1{fill:#831C30;}
	.st2{fill:#CE1B1B;}
	.st3{fill:#FFFFFF;}
	.st4{fill:#821B2E;}
	.st5{fill:#060001;}
</style>
<g>
	<path class="st0" d="M294,90c-33.3-12.3-27.6-41.6-23.4-63c0.5-2.3,0.9-4.6,1.3-6.7l0.2-1.2h1.3c13.4,0,24.4-3.9,34.5-12.3l1.1-0.9
		l1,1.1c7,8.2,16.5,12.1,29.8,12.1h1.8l-0.3,1.8c-0.4,2.2-0.7,4.4-1.1,6.7C336.6,50,332.2,77.9,295,90l-0.5,0.2L294,90z"/>
	<path class="st1" d="M308.7,8c7.4,8.7,17.2,12.6,31,12.6c-4,22.6-5,54.9-45.2,68c-35.6-13.1-25.2-45.5-21.2-68
		C287.1,20.6,298.3,16.7,308.7,8 M309.1,3.8l-2.3,1.9c-9.8,8.1-20.4,11.9-33.5,11.9h-2.5l-0.4,2.5c-0.4,2.1-0.8,4.4-1.3,6.7
		c-4.3,21.9-10.1,51.9,24.4,64.7l1,0.4l1-0.3c16.9-5.5,28.7-14.8,36.1-28.3c6.3-11.6,8.3-24.2,10-35.4c0.4-2.3,0.7-4.6,1.1-6.7
		l0.6-3.5h-3.6c-13,0-21.9-3.6-28.7-11.5L309.1,3.8L309.1,3.8z"/>
</g>
<g>
	<path class="st2" d="M308.7,8c-10.4,8.7-21.7,12.6-35.4,12.6c-4,22.6-14.3,54.9,21.2,68L308.7,8z"/>
</g>
<g>
	<g>
		<path class="st1" d="M282.8,36.7c0,0,0.1,0,0.1,0c0,0,0.1,0.1,0.1,0.1c0,0,0.1,0,0.1,0c1,0,1.8-0.4,2.4-1.3
			c0.6-0.9,1.1-1.8,1.3-2.9c0-0.1,0.1-0.2,0.1-0.3c0-0.1,0-0.2,0.1-0.4c0.1-0.8,0.2-1.6,0.1-2.2c-0.1-0.7-0.3-1-0.6-1h-0.1
			c-0.7,0-1.2,0.3-1.5,1c-0.3,0.6-0.5,1.3-0.7,2.1c0,0,0,0.1,0,0.1c0,0,0,0,0,0.1c-0.1,0.3-0.1,0.5-0.2,0.8
			c-0.1,0.2-0.1,0.5-0.2,0.7h-6c0.1-0.6,0.2-1.2,0.4-1.9c0.1-0.7,0.3-1.3,0.5-2c0.6-1.9,1.6-3.5,2.9-5.1c1.3-1.5,3.3-2.3,5.9-2.3
			h0.5c2.3,0,3.8,0.8,4.7,2.5c0.8,1.7,1.2,3.5,1,5.6c0,0.3,0,0.5-0.1,0.8c0,0.3-0.1,0.5-0.1,0.8c-0.3,1.9-0.9,3.6-1.8,5.1
			c-0.9,1.5-1.8,2.3-2.8,2.4c1.4,0.7,2.1,1.9,2.2,3.4c0.1,1.6-0.1,3.5-0.5,5.7c-0.7,4.1-1.8,6.9-3.1,8.3c-1.4,1.5-2.7,2.3-4.1,2.6
			c-0.5,0.1-1,0.2-1.5,0.2c-0.5,0-0.9,0-1.4,0l-0.5,0.1c-2.5,0-4-0.8-4.7-2.4c-0.7-1.5-1-3.2-0.9-5.1c0-0.4,0.1-0.9,0.1-1.3
			c0.1-0.5,0.1-0.9,0.2-1.3c0-0.1,0-0.3,0.1-0.4c0-0.1,0.1-0.2,0.1-0.3c0-0.2,0.1-0.3,0.1-0.5c0-0.2,0.1-0.3,0.1-0.4
			c0.1-0.3,0.1-0.5,0.2-0.8c0.1-0.2,0.1-0.5,0.1-0.7h5.8c-0.1,0.4-0.1,0.8-0.2,1.3c-0.1,0.5-0.1,1-0.2,1.6c-0.1,1-0.1,1.9,0,2.8
			c0.1,0.8,0.5,1.3,1.2,1.3c0.4,0,0.9-0.3,1.3-1c0.5-0.7,0.8-1.7,1-3l0.2-1.4c0.4-2.4,0.4-3.9-0.1-4.4c-0.5-0.5-1.3-0.9-2.4-1
			c-0.1,0-0.2,0-0.2,0c-0.1,0-0.2,0-0.2,0L282.8,36.7C282.7,36.7,282.8,36.7,282.8,36.7z"/>
		<path class="st1" d="M307.9,22c2.3,0,3.9,0.6,4.8,1.9c0.8,1.3,1,3.4,0.4,6.5l-3.5,20.1c-0.1,0.5-0.2,1-0.4,1.5
			c-0.2,0.6-0.4,1.1-0.7,1.7c-0.6,1.2-1.6,2.4-2.8,3.4c-1.2,1-2.8,1.6-4.8,1.6h-9.4l6.5-36.8H307.9z M298.8,52.7c0.1,0,0.2,0,0.2,0
			c0.1,0,0.2,0,0.2,0s0.1,0,0.2,0c0.1,0,0.1,0,0.2,0c1,0,1.8-0.3,2.4-0.9c0.6-0.6,1-1.4,1.2-2.5l2.9-16.4c0.4-2.2,0.4-3.4,0.1-3.8
			c-0.3-0.4-1.4-0.5-3.2-0.5L298.8,52.7z"/>
		<path class="st1" d="M319.2,46.4c0,0.1,0,0.2-0.1,0.3c0,0.1-0.1,0.2-0.1,0.3c-0.1,0.3-0.1,0.5-0.2,0.8c-0.1,0.3-0.1,0.5-0.1,0.7
			c-0.3,1.6-0.3,2.7,0.1,3.3c0.3,0.6,0.8,1,1.3,1.1c0.1,0,0.2,0.1,0.2,0.1c0.1,0,0.2,0,0.3,0c0.6-0.1,1.1-0.4,1.5-0.9
			c0.4-0.5,0.7-1.1,0.8-1.9c0.1-0.6,0.1-1.3,0-2c-0.1-0.8-0.4-1.5-0.8-2.3c-0.2-0.3-0.3-0.5-0.5-0.8c-0.2-0.3-0.4-0.6-0.6-0.8
			c-0.1-0.1-0.1-0.2-0.2-0.3c-0.1-0.1-0.1-0.2-0.2-0.3c-0.3-0.4-0.6-0.7-0.9-1.1c-0.3-0.4-0.6-0.8-1-1.2c-0.9-1.1-1.6-2.5-2.3-4
			c-0.6-1.6-0.7-3.7-0.2-6.2c0.1-0.5,0.3-1.2,0.5-1.9c0.2-0.7,0.5-1.4,0.9-2.1c0.7-1.5,1.8-2.8,3-4c1.3-1.2,2.7-1.8,4.5-1.8
			c2.4,0,4.5,0.8,6.1,2.3c1.6,1.6,2.1,4.3,1.4,8.3c0,0.1-0.1,0.3-0.1,0.5c0,0.2-0.1,0.4-0.1,0.6c0,0.1,0,0.2-0.1,0.3
			c0,0.1-0.1,0.2-0.1,0.3c0,0.1,0,0.2,0,0.3c0,0.1,0,0.2,0,0.3h-6.1c0.1-0.3,0.2-0.5,0.2-0.8c0.1-0.3,0.1-0.5,0.2-0.8
			c0.2-1.2,0.2-2.2-0.1-3.2c-0.2-0.9-0.7-1.4-1.3-1.4h-0.2c-0.9,0.2-1.5,0.5-2,1c-0.5,0.5-0.7,1-0.8,1.6c0,0.2-0.1,0.5,0,0.8
			c0,0.3,0.1,0.5,0.1,0.8c0.1,0.4,0.2,0.7,0.3,1.1c0.1,0.3,0.3,0.7,0.4,1c0.1,0.2,0.3,0.5,0.4,0.7c0.2,0.2,0.3,0.4,0.5,0.6
			c0.4,0.5,0.8,0.9,1.2,1.4c0.4,0.5,0.9,1,1.3,1.5c1.1,1.3,2.1,2.8,3,4.6c0.8,1.8,1,4.1,0.5,6.9l-0.3,1.4c-0.5,2.3-1.8,4.2-3.7,5.9
			c-2,1.6-4.1,2.4-6.3,2.4l-1.2,0.1c-2.7-0.2-4.4-1.1-5.2-2.8c-0.8-1.7-1.1-3.6-0.9-5.6c0-0.3,0-0.5,0.1-0.8c0-0.3,0.1-0.5,0.1-0.8
			c0-0.2,0.1-0.4,0.1-0.6c0.1-0.2,0.1-0.4,0.2-0.6c0-0.1,0.1-0.3,0.1-0.4c0-0.1,0.1-0.3,0.1-0.4c0-0.2,0.1-0.3,0.1-0.5
			c0.1-0.2,0.1-0.3,0.1-0.5H319.2z"/>
	</g>
	<g>
		<path class="st1" d="M288.7,68.4c0-0.1,0.1-0.2,0.1-0.2c0-0.1,0.1-0.2,0.1-0.2c0.1-0.1,0.1-0.2,0.2-0.4c0-0.1,0.1-0.2,0.1-0.3
			c0.1-0.2,0-0.4-0.1-0.5c-0.1-0.2-0.3-0.3-0.7-0.3h-0.2c-0.3,0-0.5,0.1-0.7,0.2c-0.2,0.1-0.3,0.3-0.4,0.5c0,0.1,0,0.3,0,0.5
			c0,0.2,0.1,0.4,0.2,0.6c0.1,0.2,0.3,0.4,0.4,0.6c0.2,0.2,0.4,0.4,0.7,0.6c0.9,0.7,1.5,1.3,1.9,1.8c0.4,0.5,0.7,1,0.9,1.5
			c0.1,0.3,0.1,0.6,0.1,1c0,0.3-0.1,0.7-0.2,1.1c-0.3,1.2-0.9,2-1.7,2.6c-0.8,0.5-1.7,0.9-2.6,1.1c-0.4,0.1-0.8,0.1-1.1,0.2
			c-0.4,0-0.7,0-1,0c-1.7,0-2.8-0.4-3.2-1.2c-0.4-0.8-0.5-1.8-0.2-2.9c0,0,0-0.1,0.1-0.2c0-0.1,0-0.1,0.1-0.2c0-0.1,0-0.1,0.1-0.2
			c0-0.1,0-0.1,0.1-0.2h3.9c0,0.1,0,0.1,0,0.2c0,0.1,0,0.1-0.1,0.2c-0.1,0.5-0.1,0.9-0.1,1.3s0.3,0.6,0.8,0.6c0.2,0,0.4-0.1,0.6-0.2
			c0.2-0.2,0.3-0.4,0.4-0.6c0-0.1,0.1-0.3,0-0.5c0-0.2,0-0.3-0.1-0.5c-0.1-0.2-0.2-0.4-0.4-0.6c-0.2-0.2-0.4-0.4-0.6-0.5
			c-0.2-0.2-0.4-0.4-0.6-0.6c-0.2-0.2-0.5-0.4-0.7-0.7c-0.5-0.5-0.9-1-1.2-1.6c-0.4-0.6-0.5-1.2-0.3-1.8c0.4-1.7,1.2-2.9,2.3-3.6
			c1.1-0.7,2.2-1.1,3.4-1.2h0.4c1.6,0,2.7,0.4,3.2,1.1c0.5,0.7,0.7,1.5,0.6,2.3c0,0.1,0,0.2,0,0.2c0,0.1,0,0.2-0.1,0.2
			c0,0,0,0.1,0,0.2c0,0.1,0,0.1-0.1,0.2c0,0,0,0,0,0c0,0,0,0,0,0c0,0.1,0,0.2-0.1,0.2c0,0.1,0,0.1-0.1,0.2H288.7z"/>
		<path class="st1" d="M298.8,64l-1.3,9.5l3.6-9.5h4.2l-6.7,14.2h-5.1l0.7-14.2H298.8z"/>
		<path class="st1" d="M311.2,64l-0.5,2.1c0,0,0,0,0.1-0.1c0,0,0,0,0.1-0.1c0.1-0.2,0.3-0.3,0.4-0.5c0.1-0.2,0.2-0.3,0.4-0.4
			c0.3-0.3,0.6-0.6,0.9-0.8c0.3-0.2,0.7-0.3,1.2-0.3c0.1,0,0.1,0,0.2,0c0.1,0,0.1,0,0.2,0c0,0,0,0,0.1,0c0,0,0,0,0.1,0
			c0,0,0.1,0,0.1,0s0.1,0,0.1,0l-1.2,4.6H312c-0.7,0-1.2,0.1-1.5,0.3c-0.3,0.2-0.5,0.7-0.7,1.4l-2,7.9h-4.2l3.6-14.2H311.2z"/>
	</g>
	<polygon class="st1" points="323.7,62 276.1,62 276.3,61 323.9,61 	"/>
</g>
<g>
	<g>
		<path class="st3" d="M282.1,35.9c0,0,0.1,0,0.1,0c0,0,0.1,0.1,0.1,0.1c0,0,0.1,0,0.1,0c1,0,1.8-0.4,2.4-1.3
			c0.6-0.9,1.1-1.8,1.3-2.9c0-0.1,0.1-0.2,0.1-0.3c0-0.1,0-0.2,0.1-0.4c0.1-0.8,0.2-1.6,0.1-2.2c-0.1-0.7-0.3-1-0.6-1h-0.1
			c-0.7,0-1.2,0.3-1.5,1c-0.3,0.6-0.5,1.3-0.7,2.1c0,0,0,0.1,0,0.1c0,0,0,0,0,0.1c-0.1,0.3-0.1,0.5-0.2,0.8
			c-0.1,0.2-0.1,0.5-0.2,0.7h-6c0.1-0.6,0.2-1.2,0.4-1.9c0.1-0.7,0.3-1.3,0.5-2c0.6-1.9,1.6-3.5,2.9-5.1c1.3-1.5,3.3-2.3,5.9-2.3
			h0.5c2.3,0,3.8,0.8,4.7,2.5c0.8,1.7,1.2,3.5,1,5.6c0,0.3,0,0.5-0.1,0.8c0,0.3-0.1,0.5-0.1,0.8c-0.3,1.9-0.9,3.6-1.8,5.1
			c-0.9,1.5-1.8,2.3-2.8,2.4c1.4,0.7,2.1,1.9,2.2,3.4c0.1,1.6-0.1,3.5-0.5,5.7c-0.7,4.1-1.8,6.9-3.1,8.3c-1.4,1.5-2.7,2.3-4.1,2.6
			c-0.5,0.1-1,0.2-1.5,0.2c-0.5,0-0.9,0-1.4,0l-0.5,0.1c-2.5,0-4-0.8-4.7-2.4c-0.7-1.5-1-3.2-0.9-5.1c0-0.4,0.1-0.9,0.1-1.3
			c0.1-0.5,0.1-0.9,0.2-1.3c0-0.1,0-0.3,0.1-0.4c0-0.1,0.1-0.2,0.1-0.3c0-0.2,0.1-0.3,0.1-0.5c0-0.2,0.1-0.3,0.1-0.4
			c0.1-0.3,0.1-0.5,0.2-0.8c0.1-0.2,0.1-0.5,0.1-0.7h5.8c-0.1,0.4-0.1,0.8-0.2,1.3c-0.1,0.5-0.1,1-0.2,1.6c-0.1,1-0.1,1.9,0,2.8
			c0.1,0.8,0.5,1.3,1.2,1.3c0.4,0,0.9-0.3,1.3-1c0.5-0.7,0.8-1.7,1-3l0.2-1.4c0.4-2.4,0.4-3.9-0.1-4.4c-0.5-0.5-1.3-0.9-2.4-1
			c-0.1,0-0.2,0-0.2,0c-0.1,0-0.2,0-0.2,0L282.1,35.9C282,35.9,282.1,35.9,282.1,35.9z"/>
		<path class="st3" d="M307.2,21.2c2.3,0,3.9,0.6,4.8,1.9c0.8,1.3,1,3.4,0.4,6.5l-3.5,20.1c-0.1,0.5-0.2,1-0.4,1.5
			c-0.2,0.6-0.4,1.1-0.7,1.7c-0.6,1.2-1.6,2.4-2.8,3.4c-1.2,1-2.8,1.6-4.8,1.6h-9.4l6.5-36.8H307.2z M298.1,51.9c0.1,0,0.2,0,0.2,0
			c0.1,0,0.2,0,0.2,0c0.1,0,0.1,0,0.2,0c0.1,0,0.1,0,0.2,0c1,0,1.8-0.3,2.4-0.9c0.6-0.6,1-1.4,1.2-2.5l2.9-16.4
			c0.4-2.2,0.4-3.4,0.1-3.8c-0.3-0.4-1.4-0.5-3.2-0.5L298.1,51.9z"/>
		<path class="st3" d="M318.5,45.6c0,0.1,0,0.2-0.1,0.3c0,0.1-0.1,0.2-0.1,0.3c-0.1,0.3-0.1,0.5-0.2,0.8c-0.1,0.3-0.1,0.5-0.1,0.7
			c-0.3,1.6-0.3,2.7,0.1,3.3c0.3,0.6,0.8,1,1.3,1.1c0.1,0,0.2,0.1,0.2,0.1c0.1,0,0.2,0,0.3,0c0.6-0.1,1.1-0.4,1.5-0.9
			c0.4-0.5,0.7-1.1,0.8-1.9c0.1-0.6,0.1-1.3,0-2c-0.1-0.8-0.4-1.5-0.8-2.3c-0.2-0.3-0.3-0.5-0.5-0.8c-0.2-0.3-0.4-0.6-0.6-0.8
			c-0.1-0.1-0.1-0.2-0.2-0.3c-0.1-0.1-0.1-0.2-0.2-0.3c-0.3-0.4-0.6-0.7-0.9-1.1c-0.3-0.4-0.7-0.8-1-1.2c-0.9-1.1-1.6-2.5-2.3-4
			c-0.6-1.6-0.7-3.7-0.2-6.2c0.1-0.5,0.3-1.2,0.5-1.9c0.2-0.7,0.5-1.4,0.9-2.1c0.7-1.5,1.8-2.8,3-4c1.3-1.2,2.7-1.8,4.5-1.8
			c2.4,0,4.5,0.8,6.1,2.3c1.6,1.6,2.1,4.3,1.4,8.3c0,0.1-0.1,0.3-0.1,0.5c0,0.2-0.1,0.4-0.1,0.6c0,0.1,0,0.2-0.1,0.3
			c0,0.1-0.1,0.2-0.1,0.3c0,0.1,0,0.2,0,0.3c0,0.1,0,0.2,0,0.3h-6.1c0.1-0.3,0.2-0.5,0.2-0.8c0.1-0.3,0.1-0.5,0.2-0.8
			c0.2-1.2,0.2-2.2-0.1-3.2c-0.2-0.9-0.7-1.4-1.3-1.4H324c-0.9,0.2-1.5,0.5-2,1c-0.5,0.5-0.7,1-0.8,1.6c0,0.2-0.1,0.5,0,0.8
			c0,0.3,0.1,0.5,0.1,0.8c0.1,0.4,0.2,0.7,0.3,1.1c0.1,0.3,0.3,0.7,0.4,1c0.1,0.2,0.3,0.5,0.4,0.7c0.2,0.2,0.3,0.4,0.5,0.6
			c0.4,0.5,0.8,0.9,1.2,1.4c0.4,0.5,0.9,1,1.3,1.5c1.1,1.3,2.1,2.8,3,4.6c0.8,1.8,1,4.1,0.5,6.9l-0.3,1.4c-0.5,2.3-1.8,4.2-3.7,5.9
			c-2,1.6-4.1,2.4-6.3,2.4l-1.2,0.1c-2.7-0.2-4.4-1.1-5.2-2.8c-0.8-1.7-1.1-3.6-0.9-5.6c0-0.3,0-0.5,0.1-0.8c0-0.3,0.1-0.5,0.1-0.8
			c0-0.2,0.1-0.4,0.1-0.6c0.1-0.2,0.1-0.4,0.2-0.6c0-0.1,0.1-0.3,0.1-0.4c0-0.1,0.1-0.3,0.1-0.4c0-0.2,0.1-0.3,0.1-0.5
			c0.1-0.2,0.1-0.3,0.1-0.5H318.5z"/>
	</g>
	<g>
		<path class="st3" d="M288,67.6c0-0.1,0.1-0.2,0.1-0.2c0-0.1,0.1-0.2,0.1-0.2c0.1-0.1,0.1-0.2,0.2-0.4c0-0.1,0.1-0.2,0.1-0.3
			c0.1-0.2,0-0.4-0.1-0.5c-0.1-0.2-0.3-0.3-0.7-0.3h-0.2c-0.3,0-0.5,0.1-0.7,0.2c-0.2,0.1-0.3,0.3-0.4,0.5c0,0.1,0,0.3,0,0.5
			c0,0.2,0.1,0.4,0.2,0.6c0.1,0.2,0.3,0.4,0.4,0.6c0.2,0.2,0.4,0.4,0.7,0.6c0.9,0.7,1.5,1.3,1.9,1.8c0.4,0.5,0.7,1,0.9,1.5
			c0.1,0.3,0.1,0.6,0.1,1c0,0.3-0.1,0.7-0.2,1.1c-0.3,1.2-0.9,2-1.7,2.6c-0.8,0.5-1.7,0.9-2.6,1.1c-0.4,0.1-0.8,0.1-1.1,0.2
			c-0.4,0-0.7,0-1,0c-1.7,0-2.8-0.4-3.2-1.2c-0.4-0.8-0.5-1.8-0.2-2.9c0,0,0-0.1,0.1-0.2c0-0.1,0-0.1,0.1-0.2c0-0.1,0-0.1,0.1-0.2
			c0-0.1,0-0.1,0.1-0.2h3.9c0,0.1,0,0.1,0,0.2c0,0.1,0,0.1-0.1,0.2c-0.1,0.5-0.1,0.9-0.1,1.3c0,0.4,0.3,0.6,0.8,0.6
			c0.2,0,0.4-0.1,0.6-0.2c0.2-0.2,0.3-0.4,0.4-0.6c0-0.1,0.1-0.3,0-0.5c0-0.2,0-0.3-0.1-0.5c-0.1-0.2-0.2-0.4-0.4-0.6
			s-0.4-0.4-0.6-0.5c-0.2-0.2-0.4-0.4-0.6-0.6c-0.2-0.2-0.5-0.4-0.7-0.7c-0.5-0.5-0.9-1-1.2-1.6c-0.4-0.6-0.5-1.2-0.3-1.8
			c0.4-1.7,1.2-2.9,2.3-3.6c1.1-0.7,2.2-1.1,3.4-1.2h0.4c1.6,0,2.7,0.4,3.2,1.1c0.5,0.7,0.7,1.5,0.6,2.3c0,0.1,0,0.2,0,0.2
			c0,0.1,0,0.2-0.1,0.2c0,0,0,0.1,0,0.2c0,0.1,0,0.1-0.1,0.2c0,0,0,0,0,0c0,0,0,0,0,0c0,0.1,0,0.2-0.1,0.2c0,0.1,0,0.1-0.1,0.2H288z
			"/>
		<path class="st3" d="M298.1,63.2l-1.3,9.5l3.6-9.5h4.2L298,77.4h-5.1l0.7-14.2H298.1z"/>
		<path class="st3" d="M310.5,63.2l-0.5,2.1c0,0,0,0,0.1-0.1c0,0,0,0,0.1-0.1c0.1-0.2,0.3-0.3,0.4-0.5c0.1-0.2,0.2-0.3,0.4-0.4
			c0.3-0.3,0.6-0.6,0.9-0.8c0.3-0.2,0.7-0.3,1.2-0.3c0.1,0,0.1,0,0.2,0c0.1,0,0.1,0,0.2,0c0,0,0,0,0.1,0c0,0,0,0,0.1,0
			c0,0,0.1,0,0.1,0s0.1,0,0.1,0l-1.2,4.6h-1.2c-0.7,0-1.2,0.1-1.5,0.3c-0.3,0.2-0.5,0.7-0.7,1.4l-2,7.9h-4.2l3.6-14.2H310.5z"/>
	</g>
	<polygon class="st3" points="323,61.2 275.4,61.2 275.6,60.2 323.2,60.2 	"/>
</g>
<g>
	<polygon class="st4" points="9.5,18.9 26.7,18.9 26.7,42.6 30.2,42.6 30.2,18.9 45.6,18.9 45.6,83.6 30.1,83.6 30.2,53.7 
		26.7,53.7 26.7,83.6 9.5,83.6 	"/>
	<rect x="48.3" y="18.9" class="st1" width="15.1" height="11.4"/>
	<rect x="48.3" y="32.4" class="st1" width="15.1" height="51.2"/>
	<polygon class="st5" points="66,18.9 102.3,18.9 102.3,30.3 92.8,30.3 92.8,83.6 75.5,83.6 75.5,30.3 66,30.3 	"/>
	<path class="st5" d="M145,18.9v53.3c0.9,5,7.8,11.3,19,11.4c11.2,0.1,17-5.2,19-11.4V18.9h-17.2v53.3c0,0-0.3,1.1-1.8,1.1
		c-1,0-1.2-0.3-1.8-1.1l-0.1-53.3H145z"/>
	<path class="st5" d="M222.8,41V28.8c0,0-1.1-7-12.7-9.9h-11.9c0,0-9.4,0.3-13.4,7.8c0,0-3.2,10.1,0,16.8c3.2,6.7,21,16.8,21,16.8
		v11.9c-3.4,4.3-6.6,0-6.6,0V57l-15.8,0.2v14.9c2.3,5.2,8.4,10.7,15.5,11.6h6.9c0,0,11.1-1.1,14.9-10.6c1.2-4,2.3-11.6-1.3-19.9
		c-1.2-0.9-17.3-13-17.3-13v-8.1c-0.3-0.8,3.7-3.4,5.2,0v9"/>
	<polygon class="st5" points="223.1,18.9 261.2,18.9 261.2,30.1 251.2,30.1 251.2,83.7 233.5,83.7 233.5,30.2 223.1,30.2 	"/>
	<path class="st5" d="M133.8,46.9c9.3-1.9,9.3-14.1,9.3-14.1c-0.8-13.9-9.7-13.9-9.7-13.9h-28.5v64.7h17.4V53.5
		c3.6-0.6,3.6,3.6,3.6,3.6v26.5h17.2V57C143.5,47.4,133.8,46.9,133.8,46.9z M127.9,36c0.3,7.5-5.6,7.7-5.6,7.7V28.3
		C122.3,28.3,128.4,27.5,127.9,36z"/>
	<path class="st5" d="M205.9,31.9"/>
</g>
</svg>
